<svg width="19" height="18" viewBox="0 0 19 18" fill="none" xmlns="http://www.w3.org/2000/svg">
<g id="search" clip-path="url(#clip0_31_2)">
<rect width="19" height="18" fill="white"/>
<g id="Group">
<path id="Vector" d="M7.60003 13.493C9.22019 13.493 10.6931 12.9488 11.8419 12.0279L16.9969 16.9116C17.1148 17.0233 17.262 17.0791 17.4241 17.0791C17.5861 17.0791 17.7334 17.0233 17.8512 16.9116C18.0869 16.6884 18.0869 16.3256 17.8512 16.1023L12.6962 11.2186C13.6535 10.1302 14.2427 8.72094 14.2427 7.20001C14.2427 3.72559 11.2675 0.906982 7.60003 0.906982C3.94732 0.906982 0.957397 3.73954 0.957397 7.20001C0.957397 10.6744 3.94732 13.493 7.60003 13.493ZM7.60003 2.05117C10.6047 2.05117 13.0349 4.36745 13.0349 7.20001C13.0349 10.0465 10.6047 12.3488 7.60003 12.3488C4.59538 12.3488 2.16515 10.0326 2.16515 7.20001C2.16515 4.36745 4.61011 2.05117 7.60003 2.05117Z" fill="#181812"/>
</g>
</g>
<defs>
<clipPath id="clip0_31_2">
<rect width="19" height="18" fill="white"/>
</clipPath>
</defs>
</svg>
